C:\Users\r0593348\3dpredictsim\Results\Batchsim_tmt_linear\Pog_s1_tmt_aCst_d00_k250_ig24_pas_GRF.mot
nRows=30
nColumns=19

name C:\Users\r0593348\3dpredictsim\Results\Batchsim_tmt_linear\Pog_s1_tmt_aCst_d00_k250_ig24_pas_GRF.mot
datacolumns 19
datarows 30
range 0.5654650507 0.8934347801
endheader
time 	ground_force_vx	ground_force_vy	ground_force_vz	ground_force_px	ground_force_py	ground_force_pz	1_ground_force_vx	1_ground_force_vy	1_ground_force_vz	1_ground_force_px	1_ground_force_py	1_ground_force_pz	ground_torque_x	ground_torque_y	ground_torque_z	1_ground_torque_x	1_ground_torque_y	1_ground_torque_z
        0.5654650507	       84.9302357367	      426.9187462933	        7.3664362846	        0.3802688064	        0.0000000000	        0.0278674695	      -57.3630441054	       77.2586069532	      -60.7977541843	        0.8838285269	        0.0000000000	       -0.0344590084	        0.0000000000	        0.0000000000	        0.0000000000	        0.0000000000	        0.0000000000	        0.0000000000	
        0.5767743517	       65.2611325189	      340.1409620558	       14.3504235275	        0.3857015506	        0.0000000000	        0.0261447182	      -51.4639704335	      178.4124692339	     -104.0707550944	        0.8878278535	        0.0000000000	       -0.0317714534	        0.0000000000	        0.0000000000	        0.0000000000	        0.0000000000	        0.0000000000	        0.0000000000	
        0.5880836527	       36.1439374931	      230.7747097978	       10.7326667823	        0.3967012568	        0.0000000000	        0.0213650402	      -43.3776420032	      346.0129483468	      -26.1663683143	        0.8907016664	        0.0000000000	       -0.0291399275	        0.0000000000	        0.0000000000	        0.0000000000	        0.0000000000	        0.0000000000	        0.0000000000	
        0.5993929537	       17.0906401000	      152.4957596819	       10.0195016177	        0.4136345700	        0.0000000000	        0.0126917472	      -55.4498062367	      542.8714478693	        0.0957914475	        0.8954736009	        0.0000000000	       -0.0297619331	        0.0000000000	        0.0000000000	        0.0000000000	        0.0000000000	        0.0000000000	        0.0000000000	
        0.6107022547	        0.9794901798	      123.4514511631	       12.1104667535	        0.4154970639	        0.0000000000	        0.0115046319	      -95.6452871795	      749.4087157959	        9.6380669982	        0.9040609619	        0.0000000000	       -0.0323104415	        0.0000000000	        0.0000000000	        0.0000000000	        0.0000000000	        0.0000000000	        0.0000000000	
        0.6220115557	       -3.4230405737	       81.5586072935	       10.3568029175	        0.4159665270	        0.0000000000	        0.0114959578	     -119.9007131871	      872.6491717487	       12.1570007812	        0.9098793055	        0.0000000000	       -0.0339551709	        0.0000000000	        0.0000000000	        0.0000000000	        0.0000000000	        0.0000000000	        0.0000000000	
        0.6333208567	       -7.8980524623	       33.8061719497	        6.0310667041	        0.4159773554	        0.0000000000	        0.0114509540	     -125.0786734860	      904.0924180435	       13.3271376326	        0.9137900722	        0.0000000000	       -0.0349029970	        0.0000000000	        0.0000000000	        0.0000000000	        0.0000000000	        0.0000000000	        0.0000000000	
        0.6446301578	        0.0394191784	       -0.0389211867	       -0.0007281031	        0.0000000000	        0.0000000000	        0.0000000000	     -117.3746799979	      886.1749429984	       13.6122065793	        0.9168368048	        0.0000000000	       -0.0354436246	        0.0000000000	        0.0000000000	        0.0000000000	        0.0000000000	        0.0000000000	        0.0000000000	
        0.6559394588	        0.0000068508	       -0.0000054930	        0.0000004863	        0.0000000000	        0.0000000000	        0.0000000000	     -104.2598699847	      847.9459631805	       14.5837406854	        0.9198656779	        0.0000000000	       -0.0357080837	        0.0000000000	        0.0000000000	        0.0000000000	        0.0000000000	        0.0000000000	        0.0000000000	
        0.6672487598	        0.0000080691	       -0.0000057074	        0.0000006764	        0.0000000000	        0.0000000000	        0.0000000000	      -90.1709824797	      800.1267792476	       14.4379205996	        0.9230385542	        0.0000000000	       -0.0358356205	        0.0000000000	        0.0000000000	        0.0000000000	        0.0000000000	        0.0000000000	        0.0000000000	
        0.6785580608	        0.0001680460	       -0.0001066334	        0.0000153220	        0.0000000000	        0.0000000000	        0.0000000000	      -77.5488494635	      754.9730567286	       14.4596978268	        0.9264850143	        0.0000000000	       -0.0358827134	        0.0000000000	        0.0000000000	        0.0000000000	        0.0000000000	        0.0000000000	        0.0000000000	
        0.6898673618	        0.0037933241	       -0.0022063844	        0.0003630617	        0.0000000000	        0.0000000000	        0.0000000000	      -66.6070342189	      718.8133799900	       14.7166226876	        0.9305651621	        0.0000000000	       -0.0358256983	        0.0000000000	        0.0000000000	        0.0000000000	        0.0000000000	        0.0000000000	        0.0000000000	
        0.7011766628	       -0.0194036187	        0.0104938082	       -0.0019218256	        0.0000000000	        0.0000000000	        0.0000000000	      -56.5363763864	      687.6837048561	       15.4000581072	        0.9348726312	        0.0000000000	       -0.0357228905	        0.0000000000	        0.0000000000	        0.0000000000	        0.0000000000	        0.0000000000	        0.0000000000	
        0.7124859638	       -0.0133690489	        0.0067976659	       -0.0013709543	        0.0000000000	        0.0000000000	        0.0000000000	      -47.2436057586	      659.7282621289	       16.3864117600	        0.9392231038	        0.0000000000	       -0.0356480960	        0.0000000000	        0.0000000000	        0.0000000000	        0.0000000000	        0.0000000000	        0.0000000000	
        0.7237952649	       -0.0097681268	        0.0047125688	       -0.0010370271	        0.0000000000	        0.0000000000	        0.0000000000	      -39.4959779369	      635.7895199596	       17.4767175174	        0.9437013840	        0.0000000000	       -0.0356101480	        0.0000000000	        0.0000000000	        0.0000000000	        0.0000000000	        0.0000000000	        0.0000000000	
        0.7351045659	       -0.0094995960	        0.0043795054	       -0.0010434116	        0.0000000000	        0.0000000000	        0.0000000000	      -33.1572529742	      616.7050608108	       18.3550394526	        0.9482504047	        0.0000000000	       -0.0355995937	        0.0000000000	        0.0000000000	        0.0000000000	        0.0000000000	        0.0000000000	        0.0000000000	
        0.7464138669	       -0.0125160540	        0.0055475687	       -0.0014174858	        0.0000000000	        0.0000000000	        0.0000000000	      -27.9267902623	      602.1149728356	       19.0525765407	        0.9529020138	        0.0000000000	       -0.0356018102	        0.0000000000	        0.0000000000	        0.0000000000	        0.0000000000	        0.0000000000	        0.0000000000	
        0.7577231679	       -0.0212351927	        0.0090978790	       -0.0024657439	        0.0000000000	        0.0000000000	        0.0000000000	      -23.6237527226	      591.9004100349	       19.3426208642	        0.9578550554	        0.0000000000	       -0.0355939927	        0.0000000000	        0.0000000000	        0.0000000000	        0.0000000000	        0.0000000000	        0.0000000000	
        0.7690324689	       -0.0428324151	        0.0178228089	       -0.0050690960	        0.0000000000	        0.0000000000	        0.0000000000	      -21.3723532907	      586.1034796842	       19.3556044385	        0.9631407622	        0.0000000000	       -0.0355447405	        0.0000000000	        0.0000000000	        0.0000000000	        0.0000000000	        0.0000000000	        0.0000000000	
        0.7803417699	       -0.0940202375	        0.0381581914	       -0.0112742032	        0.0000000000	        0.0000000000	        0.0000000000	      -19.6459072097	      583.7383282803	       19.0330432767	        0.9686885190	        0.0000000000	       -0.0354418046	        0.0000000000	        0.0000000000	        0.0000000000	        0.0000000000	        0.0000000000	        0.0000000000	
        0.7916510709	       -0.2060476721	        0.0818856563	       -0.0248079130	        0.0000000000	        0.0000000000	        0.0000000000	      -18.2314047112	      582.9818796133	       18.1541331239	        0.9744096458	        0.0000000000	       -0.0352880767	        0.0000000000	        0.0000000000	        0.0000000000	        0.0000000000	        0.0000000000	        0.0000000000	
        0.8029603719	       -0.4173963843	        0.1630489876	       -0.0500187321	        0.0000000000	        0.0000000000	        0.0000000000	      -16.6724973061	      583.0872339924	       17.3047537112	        0.9802625477	        0.0000000000	       -0.0350832069	        0.0000000000	        0.0000000000	        0.0000000000	        0.0000000000	        0.0000000000	        0.0000000000	
        0.8142696730	       -0.7426014328	        0.2861354231	       -0.0880719786	        0.0000000000	        0.0000000000	        0.0000000000	      -15.1164355317	      582.9082010842	       16.4765138469	        0.9861841207	        0.0000000000	       -0.0348409948	        0.0000000000	        0.0000000000	        0.0000000000	        0.0000000000	        0.0000000000	        0.0000000000	
        0.8255789740	       -1.1323547119	        0.4316811769	       -0.1321804020	        0.0000000000	        0.0000000000	        0.0000000000	      -13.2753601973	      581.6099492194	       15.4942375405	        0.9920788280	        0.0000000000	       -0.0345811282	        0.0000000000	        0.0000000000	        0.0000000000	        0.0000000000	        0.0000000000	        0.0000000000	
        0.8368882750	       -1.4786209708	        0.5591006167	       -0.1684932434	        0.0000000000	        0.0000000000	        0.0000000000	      -10.9488734859	      578.3869266554	       14.5225892607	        0.9979028610	        0.0000000000	       -0.0343131239	        0.0000000000	        0.0000000000	        0.0000000000	        0.0000000000	        0.0000000000	        0.0000000000	
        0.8481975760	       -1.6808576564	        0.6316036136	       -0.1848715251	        0.0000000000	        0.0000000000	        0.0000000000	       -7.7443821625	      572.9678972153	       13.3994042884	        1.0036629535	        0.0000000000	       -0.0340408770	        0.0000000000	        0.0000000000	        0.0000000000	        0.0000000000	        0.0000000000	        0.0000000000	
        0.8595068770	       -1.7025461601	        0.6365051202	       -0.1778421892	        0.0000000000	        0.0000000000	        0.0000000000	       -3.6676367391	      566.1807543802	       11.8369546677	        1.0094708367	        0.0000000000	       -0.0337560746	        0.0000000000	        0.0000000000	        0.0000000000	        0.0000000000	        0.0000000000	        0.0000000000	
        0.8708161780	       -1.5545172661	        0.5786352444	       -0.1508878077	        0.0000000000	        0.0000000000	        0.0000000000	        0.7624821530	      558.9608244354	       10.0801714404	        1.0153164561	        0.0000000000	       -0.0334524699	        0.0000000000	        0.0000000000	        0.0000000000	        0.0000000000	        0.0000000000	        0.0000000000	
        0.8821254790	       -1.2694331172	        0.4707540243	       -0.1115928799	        0.0000000000	        0.0000000000	        0.0000000000	        4.7344651220	      553.0651587613	        8.3245013208	        1.0211968788	        0.0000000000	       -0.0331242277	        0.0000000000	        0.0000000000	        0.0000000000	        0.0000000000	        0.0000000000	        0.0000000000	
        0.8934347801	       -0.9027104752	        0.3336713087	       -0.0697059866	        0.0000000000	        0.0000000000	        0.0000000000	        8.2399938604	      549.1988063061	        6.3556294032	        1.0269837430	        0.0000000000	       -0.0327852038	        0.0000000000	        0.0000000000	        0.0000000000	        0.0000000000	        0.0000000000	        0.0000000000	
